<svg width="40" height="40" viewBox="0 0 40 40" fill="none" xmlns="http://www.w3.org/2000/svg">
<path d="M20 20C22.4165 20 24.375 18.0415 24.375 15.625C24.375 13.2085 22.4165 11.25 20 11.25C17.5835 11.25 15.625 13.2119 15.625 15.625C15.625 18.0381 17.5869 20 20 20ZM20 13.4375C21.2059 13.4375 22.1875 14.4191 22.1875 15.625C22.1875 16.8309 21.2059 17.8125 20 17.8125C18.7941 17.8125 17.8125 16.8281 17.8125 15.625C17.8125 14.4219 18.7969 13.4375 20 13.4375ZM22.1875 22.1875H17.8125C14.7924 22.1875 12.3438 24.6361 12.3438 27.6562C12.3438 28.2578 12.8332 28.75 13.4375 28.75C14.0418 28.75 14.5312 28.2603 14.5312 27.6562C14.5312 25.8447 16.001 24.375 17.8125 24.375H22.1875C23.9997 24.375 25.4688 25.844 25.4688 27.6562C25.4688 28.2603 25.9585 28.75 26.5625 28.75C27.1665 28.75 27.6562 28.2603 27.6562 27.6562C27.6562 24.6348 25.209 22.1875 22.1875 22.1875ZM28.75 2.5H11.25C8.8335 2.5 6.875 4.4585 6.875 6.875V33.125C6.875 35.5415 8.8335 37.5 11.25 37.5H28.75C31.1665 37.5 33.125 35.5415 33.125 33.125V6.875C33.125 4.4585 31.1631 2.5 28.75 2.5ZM30.9375 33.125C30.9375 34.3309 29.9559 35.3125 28.75 35.3125H11.25C10.0441 35.3125 9.0625 34.3309 9.0625 33.125V6.875C9.0625 5.66914 10.0441 4.6875 11.25 4.6875H28.75C29.9559 4.6875 30.9375 5.66914 30.9375 6.875V33.125Z" fill="#5F5F5F"/>
</svg>
