<svg width="134" height="58" viewBox="0 0 134 58" fill="none" xmlns="http://www.w3.org/2000/svg">
<path d="M0 0.376099C0.0767466 0.248835 0.188889 0.146506 0.322823 0.081527C0.456758 0.0165475 0.606729 -0.00829075 0.754545 0.0100251C11.3182 0.0100251 21.8818 0.0100251 32.4454 0.0100251C32.6862 0.00912652 32.9256 0.0463652 33.1547 0.120349C33.2429 0.14073 33.3253 0.180623 33.396 0.237077C33.4666 0.29353 33.5236 0.365097 33.5627 0.446479C33.6018 0.527861 33.6221 0.616975 33.622 0.707222C33.6219 0.797468 33.6015 0.886538 33.5621 0.967835C33.458 1.23094 33.3082 1.47369 33.1195 1.68494C30.9833 4.10537 28.8387 6.52246 26.6857 8.93621C21.9271 14.3086 17.1567 19.6761 12.3745 25.0385C11.4054 26.1317 10.4362 27.2232 9.46702 28.3131C9.37481 28.4351 9.2924 28.5642 9.22054 28.6992C9.32935 28.7472 9.44211 28.7858 9.55757 28.8145C9.64627 28.8221 9.73547 28.8221 9.82417 28.8145H32.712C33.2553 28.8145 33.4314 28.99 33.4314 29.5316V32.6006C33.4314 33.1472 33.2553 33.3278 32.7171 33.3278H1.39339C1.1267 33.329 0.86161 33.2867 0.608666 33.2024C0.524578 33.1804 0.446363 33.1403 0.379549 33.0848C0.312736 33.0294 0.258955 32.96 0.222008 32.8815C0.185061 32.8031 0.16585 32.7175 0.165733 32.6308C0.165617 32.5442 0.184597 32.4585 0.221333 32.38C0.330635 32.11 0.485454 31.8607 0.67909 31.6428C2.43969 29.6369 4.20533 27.6444 5.97599 25.6653L22.7168 6.80496C23.25 6.20654 23.7816 5.60644 24.3114 5.00468C24.3956 4.88724 24.4729 4.76501 24.5428 4.6386C24.435 4.59096 24.3241 4.55075 24.2108 4.51825C24.1037 4.50816 23.996 4.50816 23.8889 4.51825H0.749514C0.599308 4.54069 0.445874 4.51303 0.313061 4.43957C0.180249 4.36612 0.0754976 4.25098 0.0150909 4.11206L0 0.376099Z" fill="#5373E3"/>
<path d="M101.532 16.6639V0.787317C101.529 0.64557 101.544 0.504053 101.577 0.366081C101.603 0.261034 101.665 0.168288 101.752 0.103444C101.839 0.0386 101.946 0.00561476 102.055 0.0100368H133.102C133.69 0.0100368 133.866 0.185552 133.866 0.772273V3.7811C133.866 4.28257 133.67 4.50322 133.142 4.50322H106.859C106.21 4.50322 106.059 4.65867 106.059 5.30557V13.9058C106.059 14.5477 106.215 14.6981 106.869 14.6981H126.758C126.891 14.6857 127.024 14.6857 127.156 14.6981C127.278 14.714 127.389 14.7738 127.47 14.8662C127.551 14.9586 127.595 15.0772 127.593 15.1996C127.593 16.3396 127.593 17.4779 127.593 18.6146C127.598 18.683 127.588 18.7514 127.564 18.8158C127.541 18.8801 127.504 18.939 127.457 18.9888C127.41 19.0386 127.353 19.0783 127.29 19.1053C127.227 19.1324 127.159 19.1463 127.09 19.1462C126.985 19.1462 126.874 19.1462 126.769 19.1462H106.828C106.225 19.1462 106.054 19.3167 106.054 19.9235V28.0824C106.054 28.639 106.235 28.8196 106.788 28.8196H133.046C133.67 28.8196 133.841 28.9901 133.841 29.6069V32.6759C133.85 32.7624 133.84 32.8499 133.812 32.9321C133.783 33.0144 133.736 33.0893 133.675 33.1515C133.614 33.2138 133.54 33.2619 133.459 33.2923C133.377 33.3228 133.289 33.3349 133.202 33.3278H102.336C101.687 33.3278 101.527 33.1723 101.527 32.5304C101.533 27.2449 101.535 21.9561 101.532 16.6639Z" fill="#5373E3"/>
<path d="M57.783 30.4694C57.6398 30.4212 57.5016 30.359 57.3705 30.2839C54.7901 28.4113 52.799 25.8437 51.6311 22.8826C50.4632 19.9215 50.1668 16.6896 50.7768 13.5665C51.3868 10.4433 52.8778 7.55841 55.0749 5.25044C57.2719 2.94246 60.0839 1.30719 63.1805 0.536578C69.0962 -0.8876 74.3729 0.536578 78.8499 4.63861C81.4816 7.02422 83.2277 10.2262 83.8048 13.7253C84.3129 16.2983 84.1919 18.9554 83.4521 21.4719C82.7122 23.9884 81.3752 26.2903 79.5542 28.1827C77.0951 30.8926 73.782 32.6847 70.1626 33.2626C66.5845 33.9243 62.8871 33.3735 59.6593 31.698C59.5544 31.6324 59.4536 31.5604 59.3575 31.4824C59.4428 31.4072 59.5336 31.3384 59.6291 31.2768C61.2087 30.4744 62.7831 29.662 64.3777 28.8898C64.6353 28.7949 64.9152 28.7775 65.1826 28.8396C67.5659 29.2475 70.0169 28.9453 72.2287 27.9709C74.4406 26.9966 76.3149 25.3934 77.617 23.3621C78.9191 21.3307 79.5911 18.9616 79.5489 16.5513C79.5066 14.141 78.752 11.7967 77.3796 9.81198C76.0071 7.82723 74.0777 6.29025 71.8331 5.39351C69.5885 4.49677 67.1284 4.28012 64.7609 4.7707C62.3933 5.26127 60.2236 6.43727 58.5233 8.15142C56.8231 9.86558 55.6679 12.0417 55.2025 14.4073C54.8217 16.2115 54.8675 18.0793 55.3364 19.8627C55.8053 21.6462 56.6843 23.2963 57.9038 24.6824C58.0242 24.81 58.1154 24.9623 58.171 25.1285C58.2266 25.2948 58.2453 25.4711 58.2257 25.6452C58.0848 27.1146 57.9641 28.5839 57.8384 30.0482C57.8484 30.1535 57.8233 30.2588 57.783 30.4694Z" fill="#5373E3"/>
<path d="M35.9113 50.5984H36.5199L40.5442 55.2922H40.6146V50.6235H41.6207V57.4536H41.0472C39.7058 55.9057 38.3644 54.3528 37.023 52.7949H36.9576V57.4536H35.9213C35.9113 55.1518 35.9113 52.8801 35.9113 50.5984Z" fill="#5373E3"/>
<path d="M68.8296 55.2471V50.5984H69.8356V57.4536H69.2421L65.2178 52.8099H65.1474V57.4536H64.1011V50.6135H64.7098L68.734 55.2671L68.8296 55.2471Z" fill="#5373E3"/>
<path d="M102.548 55.9491C102.306 56.4506 102.07 56.9521 101.833 57.4536H100.671C101.763 55.1518 102.844 52.8801 103.921 50.6035H104.836L108.086 57.4536H106.944L106.215 55.9491H102.548ZM105.737 54.9161C105.279 53.9132 104.841 53.0105 104.379 52.0126L103.026 54.9161H105.737Z" fill="#5373E3"/>
<path d="M49.2013 57.4536C50.2929 55.1568 51.3694 52.8902 52.4459 50.6135H53.3664C54.4395 52.8634 55.5211 55.1418 56.611 57.4485H55.454L54.7347 55.9441H51.0776L50.3633 57.4485L49.2013 57.4536ZM52.9439 52.0828H52.8684L51.5505 54.9011H54.2568L52.9439 52.0828Z" fill="#5373E3"/>
<path d="M14.4923 57.4535H13.4359V50.6085H18.4662V51.6114H14.5074V53.5872H18.3153V54.5901H14.4973C14.4923 55.573 14.4923 56.5007 14.4923 57.4535Z" fill="#5373E3"/>
<path d="M83.7243 55.6633L84.4537 56.3152C83.9036 56.9324 83.1579 57.343 82.3409 57.4786C81.7891 57.5962 81.2184 57.5944 80.6674 57.4733C80.1163 57.3522 79.5978 57.1146 79.1467 56.7766C78.813 56.5211 78.5345 56.2011 78.3279 55.8358C78.1213 55.4704 77.9909 55.0672 77.9445 54.6503C77.8117 54.0002 77.8729 53.3255 78.1205 52.7097C78.3681 52.0938 78.7914 51.5638 79.3379 51.1852C80.8469 50.107 83.3168 50.3979 84.4486 51.7819L83.7042 52.3937C83.6513 52.3606 83.6008 52.3237 83.5532 52.2834C83.1667 51.9146 82.6838 51.6617 82.1599 51.5535C81.636 51.4454 81.0921 51.4863 80.5904 51.6716C80.0785 51.8305 79.6362 52.1585 79.3363 52.6015C79.0364 53.0445 78.8968 53.5761 78.9405 54.1087C78.9241 54.5845 79.0561 55.0536 79.3182 55.4514C79.5804 55.8493 79.9598 56.1563 80.4043 56.3303C80.9059 56.5527 81.4608 56.6275 82.0036 56.5457C82.5464 56.464 83.0544 56.2291 83.4677 55.8689L83.6488 55.7084C83.6488 55.7084 83.679 55.6834 83.7243 55.6633Z" fill="#5373E3"/>
<path d="M115.571 50.6035H116.612V56.4506H120.385V57.4536H115.576C115.571 55.1618 115.571 52.9002 115.571 50.6035Z" fill="#5373E3"/>
<path d="M26.5298 50.6035H27.5358V57.4536H26.5298V50.6035Z" fill="#5373E3"/>
<path d="M93.1309 57.4536H92.1249V50.6035H93.1309V57.4536Z" fill="#5373E3"/>
</svg>
